<svg xmlns="http://www.w3.org/2000/svg" width="391.95" height="35" viewBox="0 0 391.95 35"><rect class="svg__rect" x="0" y="0" width="115.31" height="35" fill="#31C4F3"/><rect class="svg__rect" x="113.31" y="0" width="278.64" height="35" fill="#389AD5"/><path class="svg__text" d="M15.69 22L14.22 22L14.22 13.47L16.14 13.47L18.60 20.01L21.06 13.47L22.97 13.47L22.97 22L21.49 22L21.49 19.19L21.64 15.43L19.12 22L18.06 22L15.55 15.43L15.69 19.19L15.69 22ZM28.49 22L26.95 22L30.17 13.47L31.50 13.47L34.73 22L33.18 22L32.49 20.01L29.18 20.01L28.49 22ZM30.83 15.28L29.60 18.82L32.07 18.82L30.83 15.28ZM41.14 22L38.69 22L38.69 13.47L41.21 13.47Q42.34 13.47 43.21 13.97Q44.09 14.48 44.57 15.40Q45.05 16.33 45.05 17.52L45.05 17.52L45.05 17.95Q45.05 19.16 44.57 20.08Q44.08 21.00 43.19 21.50Q42.30 22 41.14 22L41.14 22ZM40.17 14.66L40.17 20.82L41.14 20.82Q42.30 20.82 42.93 20.09Q43.55 19.36 43.56 17.99L43.56 17.99L43.56 17.52Q43.56 16.13 42.96 15.40Q42.35 14.66 41.21 14.66L41.21 14.66L40.17 14.66ZM55.09 22L49.51 22L49.51 13.47L55.05 13.47L55.05 14.66L51.00 14.66L51.00 17.02L54.50 17.02L54.50 18.19L51.00 18.19L51.00 20.82L55.09 20.82L55.09 22ZM66.65 22L64.68 13.47L66.15 13.47L67.47 19.88L69.10 13.47L70.34 13.47L71.96 19.89L73.27 13.47L74.74 13.47L72.77 22L71.35 22L69.73 15.77L68.07 22L66.65 22ZM80.38 22L78.90 22L78.90 13.47L80.38 13.47L80.38 22ZM86.87 14.66L84.23 14.66L84.23 13.47L91.00 13.47L91.00 14.66L88.34 14.66L88.34 22L86.87 22L86.87 14.66ZM96.24 22L94.75 22L94.75 13.47L96.24 13.47L96.24 17.02L100.05 17.02L100.05 13.47L101.53 13.47L101.53 22L100.05 22L100.05 18.21L96.24 18.21L96.24 22Z" fill="#FFFFFF"/><path class="svg__text" d="M129.70 22L127.50 22L127.50 13.60L129.45 13.60L132.41 18.45L135.29 13.60L137.24 13.60L137.27 22L135.09 22L135.06 17.55L132.90 21.17L131.85 21.17L129.70 17.67L129.70 22ZM144.81 22L142.43 22L142.43 13.60L144.81 13.60L144.81 22ZM149.55 17.80L149.55 17.80Q149.55 16.54 150.15 15.54Q150.75 14.55 151.80 13.99Q152.85 13.43 154.17 13.43L154.17 13.43Q155.32 13.43 156.25 13.84Q157.17 14.25 157.78 15.02L157.78 15.02L156.27 16.39Q155.46 15.40 154.29 15.40L154.29 15.40Q153.61 15.40 153.07 15.70Q152.54 16 152.24 16.54Q151.95 17.09 151.95 17.80L151.95 17.80Q151.95 18.51 152.24 19.05Q152.54 19.60 153.07 19.90Q153.61 20.20 154.29 20.20L154.29 20.20Q155.46 20.20 156.27 19.22L156.27 19.22L157.78 20.58Q157.18 21.35 156.25 21.76Q155.32 22.17 154.17 22.17L154.17 22.17Q152.85 22.17 151.80 21.61Q150.75 21.05 150.15 20.05Q149.55 19.06 149.55 17.80ZM164.70 22L162.32 22L162.32 13.60L166.16 13.60Q167.31 13.60 168.14 13.98Q168.98 14.35 169.44 15.06Q169.90 15.76 169.90 16.71L169.90 16.71Q169.90 17.62 169.47 18.30Q169.04 18.98 168.25 19.36L168.25 19.36L170.06 22L167.52 22L165.99 19.77L164.70 19.77L164.70 22ZM164.70 15.47L164.70 17.93L166.02 17.93Q166.75 17.93 167.12 17.61Q167.49 17.29 167.49 16.71L167.49 16.71Q167.49 16.12 167.12 15.79Q166.75 15.47 166.02 15.47L166.02 15.47L164.70 15.47ZM174.26 17.80L174.26 17.80Q174.26 16.55 174.86 15.55Q175.46 14.56 176.53 14.00Q177.59 13.43 178.92 13.43L178.92 13.43Q180.25 13.43 181.31 14.00Q182.38 14.56 182.98 15.55Q183.59 16.55 183.59 17.80L183.59 17.80Q183.59 19.05 182.98 20.04Q182.38 21.04 181.32 21.60Q180.26 22.17 178.92 22.17L178.92 22.17Q177.59 22.17 176.53 21.60Q175.46 21.04 174.86 20.04Q174.26 19.05 174.26 17.80ZM176.65 17.80L176.65 17.80Q176.65 18.51 176.95 19.05Q177.26 19.60 177.77 19.90Q178.29 20.20 178.92 20.20L178.92 20.20Q179.56 20.20 180.07 19.90Q180.59 19.60 180.89 19.05Q181.19 18.51 181.19 17.80L181.19 17.80Q181.19 17.09 180.89 16.54Q180.59 16 180.07 15.70Q179.56 15.40 178.92 15.40L178.92 15.40Q178.28 15.40 177.77 15.70Q177.26 16 176.95 16.54Q176.65 17.09 176.65 17.80ZM187.73 21.24L187.73 21.24L188.51 19.49Q189.07 19.86 189.82 20.09Q190.56 20.32 191.28 20.32L191.28 20.32Q192.65 20.32 192.65 19.64L192.65 19.64Q192.65 19.28 192.26 19.11Q191.87 18.93 191.01 18.74L191.01 18.74Q190.06 18.53 189.42 18.30Q188.79 18.06 188.33 17.55Q187.88 17.03 187.88 16.16L187.88 16.16Q187.88 15.39 188.30 14.77Q188.72 14.15 189.55 13.79Q190.39 13.43 191.59 13.43L191.59 13.43Q192.42 13.43 193.23 13.62Q194.03 13.80 194.65 14.17L194.65 14.17L193.91 15.93Q192.71 15.28 191.58 15.28L191.58 15.28Q190.87 15.28 190.55 15.49Q190.23 15.70 190.23 16.04L190.23 16.04Q190.23 16.37 190.61 16.54Q191.00 16.71 191.85 16.89L191.85 16.89Q192.81 17.10 193.44 17.33Q194.07 17.56 194.53 18.07Q194.99 18.58 194.99 19.46L194.99 19.46Q194.99 20.21 194.57 20.83Q194.15 21.44 193.31 21.80Q192.47 22.17 191.27 22.17L191.27 22.17Q190.25 22.17 189.29 21.92Q188.33 21.67 187.73 21.24ZM199.14 17.80L199.14 17.80Q199.14 16.55 199.74 15.55Q200.35 14.56 201.41 14.00Q202.47 13.43 203.80 13.43L203.80 13.43Q205.13 13.43 206.20 14.00Q207.26 14.56 207.87 15.55Q208.47 16.55 208.47 17.80L208.47 17.80Q208.47 19.05 207.87 20.04Q207.26 21.04 206.20 21.60Q205.14 22.17 203.80 22.17L203.80 22.17Q202.47 22.17 201.41 21.60Q200.35 21.04 199.74 20.04Q199.14 19.05 199.14 17.80ZM201.54 17.80L201.54 17.80Q201.54 18.51 201.84 19.05Q202.14 19.60 202.66 19.90Q203.17 20.20 203.80 20.20L203.80 20.20Q204.44 20.20 204.96 19.90Q205.47 19.60 205.77 19.05Q206.07 18.51 206.07 17.80L206.07 17.80Q206.07 17.09 205.77 16.54Q205.47 16 204.96 15.70Q204.44 15.40 203.80 15.40L203.80 15.40Q203.17 15.40 202.65 15.70Q202.14 16 201.84 16.54Q201.54 17.09 201.54 17.80ZM215.58 22L213.20 22L213.20 13.60L219.79 13.60L219.79 15.44L215.58 15.44L215.58 17.28L219.29 17.28L219.29 19.12L215.58 19.12L215.58 22ZM226.18 15.48L223.60 15.48L223.60 13.60L231.12 13.60L231.12 15.48L228.55 15.48L228.55 22L226.18 22L226.18 15.48ZM255.82 21.24L255.82 21.24L256.60 19.49Q257.17 19.86 257.91 20.09Q258.65 20.32 259.37 20.32L259.37 20.32Q260.74 20.32 260.75 19.64L260.75 19.64Q260.75 19.28 260.36 19.11Q259.97 18.93 259.10 18.74L259.10 18.74Q258.15 18.53 257.51 18.30Q256.88 18.06 256.42 17.55Q255.97 17.03 255.97 16.16L255.97 16.16Q255.97 15.39 256.39 14.77Q256.81 14.15 257.64 13.79Q258.48 13.43 259.69 13.43L259.69 13.43Q260.51 13.43 261.32 13.62Q262.12 13.80 262.74 14.17L262.74 14.17L262.01 15.93Q260.80 15.28 259.67 15.28L259.67 15.28Q258.96 15.28 258.64 15.49Q258.32 15.70 258.32 16.04L258.32 16.04Q258.32 16.37 258.70 16.54Q259.09 16.71 259.94 16.89L259.94 16.89Q260.90 17.10 261.53 17.33Q262.16 17.56 262.62 18.07Q263.08 18.58 263.08 19.46L263.08 19.46Q263.08 20.21 262.66 20.83Q262.25 21.44 261.41 21.80Q260.56 22.17 259.36 22.17L259.36 22.17Q258.34 22.17 257.38 21.92Q256.42 21.67 255.82 21.24ZM267.23 17.80L267.23 17.80Q267.23 16.55 267.84 15.55Q268.44 14.56 269.50 14.00Q270.57 13.43 271.90 13.43L271.90 13.43Q273.23 13.43 274.29 14.00Q275.35 14.56 275.96 15.55Q276.57 16.55 276.57 17.80L276.57 17.80Q276.57 19.22 275.79 20.30Q275.02 21.39 273.71 21.85L273.71 21.85Q273.95 22.12 274.18 22.23Q274.42 22.33 274.69 22.33L274.69 22.33Q275.40 22.33 275.97 21.75L275.97 21.75L277.00 22.97Q276.58 23.49 275.97 23.76Q275.37 24.03 274.64 24.03L274.64 24.03Q273.95 24.03 273.38 23.85Q272.82 23.67 272.25 23.25Q271.68 22.84 270.98 22.09L270.98 22.09Q269.89 21.91 269.03 21.31Q268.18 20.72 267.70 19.81Q267.23 18.89 267.23 17.80ZM269.63 17.80L269.63 17.80Q269.63 18.51 269.93 19.05Q270.23 19.60 270.75 19.90Q271.26 20.20 271.90 20.20L271.90 20.20Q272.54 20.20 273.05 19.90Q273.57 19.60 273.87 19.05Q274.16 18.51 274.16 17.80L274.16 17.80Q274.16 17.09 273.87 16.54Q273.57 16 273.05 15.70Q272.54 15.40 271.90 15.40L271.90 15.40Q271.26 15.40 270.74 15.70Q270.23 16 269.93 16.54Q269.63 17.09 269.63 17.80ZM287.68 22L281.29 22L281.29 13.60L283.67 13.60L283.67 20.11L287.68 20.11L287.68 22ZM312.43 21.24L312.43 21.24L313.21 19.49Q313.77 19.86 314.52 20.09Q315.26 20.32 315.98 20.32L315.98 20.32Q317.35 20.32 317.35 19.64L317.35 19.64Q317.35 19.28 316.96 19.11Q316.57 18.93 315.71 18.74L315.71 18.74Q314.76 18.53 314.12 18.30Q313.49 18.06 313.03 17.55Q312.58 17.03 312.58 16.16L312.58 16.16Q312.58 15.39 313.00 14.77Q313.42 14.15 314.25 13.79Q315.09 13.43 316.29 13.43L316.29 13.43Q317.12 13.43 317.92 13.62Q318.73 13.80 319.35 14.17L319.35 14.17L318.61 15.93Q317.41 15.28 316.28 15.28L316.28 15.28Q315.57 15.28 315.25 15.49Q314.93 15.70 314.93 16.04L314.93 16.04Q314.93 16.37 315.31 16.54Q315.70 16.71 316.54 16.89L316.54 16.89Q317.51 17.10 318.14 17.33Q318.77 17.56 319.23 18.07Q319.69 18.58 319.69 19.46L319.69 19.46Q319.69 20.21 319.27 20.83Q318.85 21.44 318.01 21.80Q317.17 22.17 315.97 22.17L315.97 22.17Q314.95 22.17 313.99 21.92Q313.03 21.67 312.43 21.24ZM331.01 22L324.27 22L324.27 13.60L330.86 13.60L330.86 15.44L326.62 15.44L326.62 16.85L330.36 16.85L330.36 18.63L326.62 18.63L326.62 20.17L331.01 20.17L331.01 22ZM338.20 22L335.82 22L335.82 13.60L339.66 13.60Q340.80 13.60 341.64 13.98Q342.48 14.35 342.94 15.06Q343.39 15.76 343.39 16.71L343.39 16.71Q343.39 17.62 342.96 18.30Q342.54 18.98 341.75 19.36L341.75 19.36L343.56 22L341.01 22L339.49 19.77L338.20 19.77L338.20 22ZM338.20 15.47L338.20 17.93L339.51 17.93Q340.25 17.93 340.62 17.61Q340.99 17.29 340.99 16.71L340.99 16.71Q340.99 16.12 340.62 15.79Q340.25 15.47 339.51 15.47L339.51 15.47L338.20 15.47ZM350.76 22L347.17 13.60L349.74 13.60L352.02 19.07L354.35 13.60L356.70 13.60L353.10 22L350.76 22ZM367.60 22L360.85 22L360.85 13.60L367.45 13.60L367.45 15.44L363.21 15.44L363.21 16.85L366.94 16.85L366.94 18.63L363.21 18.63L363.21 20.17L367.60 20.17L367.60 22ZM374.78 22L372.40 22L372.40 13.60L376.25 13.60Q377.39 13.60 378.23 13.98Q379.06 14.35 379.52 15.06Q379.98 15.76 379.98 16.71L379.98 16.71Q379.98 17.62 379.55 18.30Q379.12 18.98 378.33 19.36L378.33 19.36L380.14 22L377.60 22L376.08 19.77L374.78 19.77L374.78 22ZM374.78 15.47L374.78 17.93L376.10 17.93Q376.83 17.93 377.20 17.61Q377.58 17.29 377.58 16.71L377.58 16.71Q377.58 16.12 377.20 15.79Q376.83 15.47 376.10 15.47L376.10 15.47L374.78 15.47Z" fill="#FFFFFF" x="126.31"/></svg>