<svg xmlns="http://www.w3.org/2000/svg" width="228.93" height="35" viewBox="0 0 228.93 35"><rect class="svg__rect" x="0" y="0" width="115.31" height="35" fill="#F3315D"/><rect class="svg__rect" x="113.31" y="0" width="115.62" height="35" fill="#389AD5"/><path class="svg__text" d="M15.69 22L14.22 22L14.22 13.47L16.14 13.47L18.60 20.01L21.06 13.47L22.97 13.47L22.97 22L21.49 22L21.49 19.19L21.64 15.43L19.12 22L18.06 22L15.55 15.43L15.69 19.19L15.69 22ZM28.49 22L26.95 22L30.17 13.47L31.50 13.47L34.73 22L33.18 22L32.49 20.01L29.18 20.01L28.49 22ZM30.83 15.28L29.60 18.82L32.07 18.82L30.83 15.28ZM41.14 22L38.69 22L38.69 13.47L41.21 13.47Q42.34 13.47 43.21 13.97Q44.09 14.48 44.57 15.40Q45.05 16.33 45.05 17.52L45.05 17.52L45.05 17.95Q45.05 19.16 44.57 20.08Q44.08 21.00 43.19 21.50Q42.30 22 41.14 22L41.14 22ZM40.17 14.66L40.17 20.82L41.14 20.82Q42.30 20.82 42.93 20.09Q43.55 19.36 43.56 17.99L43.56 17.99L43.56 17.52Q43.56 16.13 42.96 15.40Q42.35 14.66 41.21 14.66L41.21 14.66L40.17 14.66ZM55.09 22L49.51 22L49.51 13.47L55.05 13.47L55.05 14.66L51.00 14.66L51.00 17.02L54.50 17.02L54.50 18.19L51.00 18.19L51.00 20.82L55.09 20.82L55.09 22ZM66.65 22L64.68 13.47L66.15 13.47L67.47 19.88L69.10 13.47L70.34 13.47L71.96 19.89L73.27 13.47L74.74 13.47L72.77 22L71.35 22L69.73 15.77L68.07 22L66.65 22ZM80.38 22L78.90 22L78.90 13.47L80.38 13.47L80.38 22ZM86.87 14.66L84.23 14.66L84.23 13.47L91.00 13.47L91.00 14.66L88.34 14.66L88.34 22L86.87 22L86.87 14.66ZM96.24 22L94.75 22L94.75 13.47L96.24 13.47L96.24 17.02L100.05 17.02L100.05 13.47L101.53 13.47L101.53 22L100.05 22L100.05 18.21L96.24 18.21L96.24 22Z" fill="#FFFFFF"/><path class="svg__text" d="M129.88 22L127.50 22L127.50 13.60L131.34 13.60Q132.48 13.60 133.32 13.98Q134.16 14.35 134.62 15.06Q135.07 15.76 135.07 16.71L135.07 16.71Q135.07 17.66 134.62 18.35Q134.16 19.05 133.32 19.42Q132.48 19.80 131.34 19.80L131.34 19.80L129.88 19.80L129.88 22ZM129.88 15.47L129.88 17.93L131.20 17.93Q131.93 17.93 132.30 17.61Q132.67 17.29 132.67 16.71L132.67 16.71Q132.67 16.12 132.30 15.80Q131.93 15.47 131.20 15.47L131.20 15.47L129.88 15.47ZM139.40 17.80L139.40 17.80Q139.40 16.55 140.00 15.55Q140.61 14.56 141.67 14.00Q142.73 13.43 144.06 13.43L144.06 13.43Q145.39 13.43 146.46 14.00Q147.52 14.56 148.13 15.55Q148.73 16.55 148.73 17.80L148.73 17.80Q148.73 19.05 148.13 20.04Q147.52 21.04 146.46 21.60Q145.40 22.17 144.06 22.17L144.06 22.17Q142.73 22.17 141.67 21.60Q140.61 21.04 140.00 20.04Q139.40 19.05 139.40 17.80ZM141.79 17.80L141.79 17.80Q141.79 18.51 142.10 19.05Q142.40 19.60 142.91 19.90Q143.43 20.20 144.06 20.20L144.06 20.20Q144.70 20.20 145.22 19.90Q145.73 19.60 146.03 19.05Q146.33 18.51 146.33 17.80L146.33 17.80Q146.33 17.09 146.03 16.54Q145.73 16 145.22 15.70Q144.70 15.40 144.06 15.40L144.06 15.40Q143.42 15.40 142.91 15.70Q142.40 16 142.10 16.54Q141.79 17.09 141.79 17.80ZM155.54 22L152.82 13.60L155.27 13.60L156.95 18.96L158.73 13.60L160.91 13.60L162.61 19.01L164.37 13.60L166.64 13.60L163.91 22L161.37 22L159.77 16.89L158.08 22L155.54 22ZM177.89 22L171.15 22L171.15 13.60L177.74 13.60L177.74 15.44L173.51 15.44L173.51 16.85L177.24 16.85L177.24 18.63L173.51 18.63L173.51 20.17L177.89 20.17L177.89 22ZM185.08 22L182.70 22L182.70 13.60L186.54 13.60Q187.69 13.60 188.52 13.98Q189.36 14.35 189.82 15.06Q190.28 15.76 190.28 16.71L190.28 16.71Q190.28 17.62 189.85 18.30Q189.42 18.98 188.63 19.36L188.63 19.36L190.44 22L187.90 22L186.37 19.77L185.08 19.77L185.08 22ZM185.08 15.47L185.08 17.93L186.40 17.93Q187.13 17.93 187.50 17.61Q187.87 17.29 187.87 16.71L187.87 16.71Q187.87 16.12 187.50 15.79Q187.13 15.47 186.40 15.47L186.40 15.47L185.08 15.47ZM206.58 22L202.03 22L202.03 13.60L206.34 13.60Q207.94 13.60 208.78 14.19Q209.62 14.79 209.62 15.79L209.62 15.79Q209.62 16.39 209.33 16.87Q209.03 17.34 208.49 17.62L208.49 17.62Q209.21 17.87 209.62 18.41Q210.03 18.94 210.03 19.70L210.03 19.70Q210.03 20.80 209.14 21.40Q208.25 22 206.58 22L206.58 22ZM204.39 18.58L204.39 20.28L206.38 20.28Q207.63 20.28 207.63 19.43L207.63 19.43Q207.63 18.58 206.38 18.58L206.38 18.58L204.39 18.58ZM204.39 15.31L204.39 16.94L206.02 16.94Q207.22 16.94 207.22 16.12L207.22 16.12Q207.22 15.31 206.02 15.31L206.02 15.31L204.39 15.31ZM217.12 22L214.74 22L214.74 13.60L217.12 13.60L217.12 22Z" fill="#FFFFFF" x="126.31"/></svg>