<svg xmlns="http://www.w3.org/2000/svg" width="325.31" height="35" viewBox="0 0 325.31 35"><rect class="svg__rect" x="0" y="0" width="173.37" height="35" fill="#5BD603"/><rect class="svg__rect" x="171.37" y="0" width="153.94" height="35" fill="#C13B3A"/><path class="svg__text" d="M15.69 22L14.22 22L14.22 13.47L16.14 13.47L18.60 20.01L21.06 13.47L22.97 13.47L22.97 22L21.49 22L21.49 19.19L21.64 15.43L19.12 22L18.06 22L15.55 15.43L15.69 19.19L15.69 22ZM29.28 22L27.80 22L27.80 13.47L29.28 13.47L29.28 22ZM33.82 18.19L33.82 18.19L33.82 17.39Q33.82 16.19 34.24 15.27Q34.67 14.35 35.47 13.85Q36.27 13.35 37.32 13.35L37.32 13.35Q38.73 13.35 39.59 14.12Q40.46 14.89 40.60 16.29L40.60 16.29L39.12 16.29Q39.01 15.37 38.58 14.96Q38.15 14.55 37.32 14.55L37.32 14.55Q36.35 14.55 35.84 15.26Q35.32 15.96 35.31 17.33L35.31 17.33L35.31 18.09Q35.31 19.47 35.80 20.20Q36.30 20.92 37.25 20.92L37.25 20.92Q38.12 20.92 38.56 20.53Q39.00 20.14 39.12 19.22L39.12 19.22L40.60 19.22Q40.47 20.59 39.59 21.35Q38.71 22.12 37.25 22.12L37.25 22.12Q36.23 22.12 35.45 21.63Q34.68 21.15 34.26 20.26Q33.83 19.37 33.82 18.19ZM46.39 22L44.91 22L44.91 13.47L47.91 13.47Q49.39 13.47 50.19 14.13Q50.99 14.79 50.99 16.05L50.99 16.05Q50.99 16.90 50.58 17.48Q50.16 18.06 49.43 18.37L49.43 18.37L51.34 21.92L51.34 22L49.75 22L48.04 18.71L46.39 18.71L46.39 22ZM46.39 14.66L46.39 17.52L47.91 17.52Q48.66 17.52 49.09 17.15Q49.51 16.77 49.51 16.11L49.51 16.11Q49.51 15.43 49.12 15.05Q48.73 14.68 47.96 14.66L47.96 14.66L46.39 14.66ZM55.12 18.00L55.12 18.00L55.12 17.52Q55.12 16.28 55.56 15.32Q56.00 14.37 56.81 13.86Q57.61 13.35 58.65 13.35Q59.70 13.35 60.50 13.85Q61.31 14.35 61.75 15.29Q62.19 16.23 62.19 17.48L62.19 17.48L62.19 17.96Q62.19 19.21 61.76 20.16Q61.33 21.10 60.52 21.61Q59.72 22.12 58.67 22.12L58.67 22.12Q57.63 22.12 56.82 21.61Q56.01 21.10 55.56 20.17Q55.12 19.23 55.12 18.00ZM56.60 17.46L56.60 17.96Q56.60 19.36 57.15 20.13Q57.69 20.90 58.67 20.90L58.67 20.90Q59.65 20.90 60.18 20.15Q60.71 19.40 60.71 17.96L60.71 17.96L60.71 17.51Q60.71 16.09 60.18 15.34Q59.64 14.58 58.65 14.58L58.65 14.58Q57.69 14.58 57.15 15.33Q56.61 16.09 56.60 17.46L56.60 17.46ZM66.22 19.42L66.22 19.42L67.71 19.42Q67.71 20.15 68.19 20.55Q68.67 20.95 69.56 20.95L69.56 20.95Q70.34 20.95 70.73 20.63Q71.12 20.32 71.12 19.80L71.12 19.80Q71.12 19.24 70.72 18.94Q70.33 18.63 69.30 18.32Q68.26 18.01 67.65 17.63L67.65 17.63Q66.49 16.90 66.49 15.72L66.49 15.72Q66.49 14.69 67.33 14.02Q68.17 13.35 69.51 13.35L69.51 13.35Q70.40 13.35 71.10 13.68Q71.80 14.01 72.20 14.61Q72.59 15.22 72.59 15.96L72.59 15.96L71.12 15.96Q71.12 15.29 70.70 14.91Q70.28 14.54 69.50 14.54L69.50 14.54Q68.77 14.54 68.37 14.85Q67.97 15.16 67.97 15.71L67.97 15.71Q67.97 16.18 68.40 16.50Q68.84 16.81 69.83 17.10Q70.83 17.40 71.43 17.78Q72.04 18.16 72.32 18.65Q72.60 19.13 72.60 19.79L72.60 19.79Q72.60 20.86 71.78 21.49Q70.97 22.12 69.56 22.12L69.56 22.12Q68.64 22.12 67.86 21.77Q67.09 21.43 66.66 20.83Q66.22 20.22 66.22 19.42ZM76.62 18.00L76.62 18.00L76.62 17.52Q76.62 16.28 77.06 15.32Q77.50 14.37 78.31 13.86Q79.12 13.35 80.16 13.35Q81.20 13.35 82.01 13.85Q82.81 14.35 83.25 15.29Q83.69 16.23 83.70 17.48L83.70 17.48L83.70 17.96Q83.70 19.21 83.26 20.16Q82.83 21.10 82.02 21.61Q81.22 22.12 80.17 22.12L80.17 22.12Q79.13 22.12 78.32 21.61Q77.51 21.10 77.07 20.17Q76.63 19.23 76.62 18.00ZM78.10 17.46L78.10 17.96Q78.10 19.36 78.65 20.13Q79.20 20.90 80.17 20.90L80.17 20.90Q81.15 20.90 81.68 20.15Q82.22 19.40 82.22 17.96L82.22 17.96L82.22 17.51Q82.22 16.09 81.68 15.34Q81.14 14.58 80.16 14.58L80.16 14.58Q79.20 14.58 78.66 15.33Q78.11 16.09 78.10 17.46L78.10 17.46ZM89.64 22L88.16 22L88.16 13.47L93.58 13.47L93.58 14.66L89.64 14.66L89.64 17.20L93.08 17.20L93.08 18.38L89.64 18.38L89.64 22ZM99.42 14.66L96.79 14.66L96.79 13.47L103.56 13.47L103.56 14.66L100.89 14.66L100.89 22L99.42 22L99.42 14.66ZM118.87 22L113.29 22L113.29 13.47L118.82 13.47L118.82 14.66L114.77 14.66L114.77 17.02L118.27 17.02L118.27 18.19L114.77 18.19L114.77 20.82L118.87 20.82L118.87 22ZM124.16 22L122.43 22L125.08 17.70L122.49 13.47L124.20 13.47L126.00 16.55L127.79 13.47L129.50 13.47L126.92 17.70L129.56 22L127.83 22L126.00 18.87L124.16 22ZM133.37 18.19L133.37 18.19L133.37 17.39Q133.37 16.19 133.80 15.27Q134.23 14.35 135.03 13.85Q135.83 13.35 136.88 13.35L136.88 13.35Q138.29 13.35 139.15 14.12Q140.01 14.89 140.15 16.29L140.15 16.29L138.68 16.29Q138.57 15.37 138.14 14.96Q137.71 14.55 136.88 14.55L136.88 14.55Q135.91 14.55 135.39 15.26Q134.87 15.96 134.86 17.33L134.86 17.33L134.86 18.09Q134.86 19.47 135.36 20.20Q135.85 20.92 136.81 20.92L136.81 20.92Q137.68 20.92 138.12 20.53Q138.56 20.14 138.68 19.22L138.68 19.22L140.15 19.22Q140.02 20.59 139.14 21.35Q138.27 22.12 136.81 22.12L136.81 22.12Q135.79 22.12 135.01 21.63Q134.23 21.15 133.81 20.26Q133.39 19.37 133.37 18.19ZM150.04 22L144.47 22L144.47 13.47L150.00 13.47L150.00 14.66L145.95 14.66L145.95 17.02L149.45 17.02L149.45 18.19L145.95 18.19L145.95 20.82L150.04 20.82L150.04 22ZM159.59 22L154.24 22L154.24 13.47L155.72 13.47L155.72 20.82L159.59 20.82L159.59 22Z" fill="#FFFFFF"/><path class="svg__text" d="M187.94 22L185.56 22L185.56 13.60L189.40 13.60Q190.54 13.60 191.38 13.98Q192.22 14.35 192.68 15.06Q193.13 15.76 193.13 16.71L193.13 16.71Q193.13 17.66 192.68 18.35Q192.22 19.05 191.38 19.42Q190.54 19.80 189.40 19.80L189.40 19.80L187.94 19.80L187.94 22ZM187.94 15.47L187.94 17.93L189.26 17.93Q189.99 17.93 190.36 17.61Q190.73 17.29 190.73 16.71L190.73 16.71Q190.73 16.12 190.36 15.80Q189.99 15.47 189.26 15.47L189.26 15.47L187.94 15.47ZM197.46 17.80L197.46 17.80Q197.46 16.55 198.06 15.55Q198.67 14.56 199.73 14.00Q200.79 13.43 202.12 13.43L202.12 13.43Q203.45 13.43 204.52 14.00Q205.58 14.56 206.19 15.55Q206.79 16.55 206.79 17.80L206.79 17.80Q206.79 19.05 206.19 20.04Q205.58 21.04 204.52 21.60Q203.46 22.17 202.12 22.17L202.12 22.17Q200.79 22.17 199.73 21.60Q198.67 21.04 198.06 20.04Q197.46 19.05 197.46 17.80ZM199.85 17.80L199.85 17.80Q199.85 18.51 200.16 19.05Q200.46 19.60 200.97 19.90Q201.49 20.20 202.12 20.20L202.12 20.20Q202.76 20.20 203.28 19.90Q203.79 19.60 204.09 19.05Q204.39 18.51 204.39 17.80L204.39 17.80Q204.39 17.09 204.09 16.54Q203.79 16 203.28 15.70Q202.76 15.40 202.12 15.40L202.12 15.40Q201.48 15.40 200.97 15.70Q200.46 16 200.16 16.54Q199.85 17.09 199.85 17.80ZM213.60 22L210.88 13.60L213.33 13.60L215.01 18.96L216.79 13.60L218.97 13.60L220.67 19.01L222.43 13.60L224.70 13.60L221.97 22L219.43 22L217.83 16.89L216.14 22L213.60 22ZM235.95 22L229.21 22L229.21 13.60L235.80 13.60L235.80 15.44L231.57 15.44L231.57 16.85L235.30 16.85L235.30 18.63L231.57 18.63L231.57 20.17L235.95 20.17L235.95 22ZM243.14 22L240.76 22L240.76 13.60L244.60 13.60Q245.75 13.60 246.58 13.98Q247.42 14.35 247.88 15.06Q248.34 15.76 248.34 16.71L248.34 16.71Q248.34 17.62 247.91 18.30Q247.48 18.98 246.69 19.36L246.69 19.36L248.50 22L245.96 22L244.43 19.77L243.14 19.77L243.14 22ZM243.14 15.47L243.14 17.93L244.46 17.93Q245.19 17.93 245.56 17.61Q245.93 17.29 245.93 16.71L245.93 16.71Q245.93 16.12 245.56 15.79Q245.19 15.47 244.46 15.47L244.46 15.47L243.14 15.47ZM262.47 22L260.10 22L260.10 13.60L263.94 13.60Q265.08 13.60 265.92 13.98Q266.76 14.35 267.21 15.06Q267.67 15.76 267.67 16.71L267.67 16.71Q267.67 17.66 267.21 18.35Q266.76 19.05 265.92 19.42Q265.08 19.80 263.94 19.80L263.94 19.80L262.47 19.80L262.47 22ZM262.47 15.47L262.47 17.93L263.79 17.93Q264.52 17.93 264.90 17.61Q265.27 17.29 265.27 16.71L265.27 16.71Q265.27 16.12 264.90 15.80Q264.52 15.47 263.79 15.47L263.79 15.47L262.47 15.47ZM272.00 17.80L272.00 17.80Q272.00 16.55 272.60 15.55Q273.20 14.56 274.27 14.00Q275.33 13.43 276.66 13.43L276.66 13.43Q277.99 13.43 279.05 14.00Q280.12 14.56 280.72 15.55Q281.33 16.55 281.33 17.80L281.33 17.80Q281.33 19.05 280.72 20.04Q280.12 21.04 279.06 21.60Q278.00 22.17 276.66 22.17L276.66 22.17Q275.33 22.17 274.27 21.60Q273.20 21.04 272.60 20.04Q272.00 19.05 272.00 17.80ZM274.39 17.80L274.39 17.80Q274.39 18.51 274.69 19.05Q275.00 19.60 275.51 19.90Q276.03 20.20 276.66 20.20L276.66 20.20Q277.30 20.20 277.81 19.90Q278.33 19.60 278.63 19.05Q278.93 18.51 278.93 17.80L278.93 17.80Q278.93 17.09 278.63 16.54Q278.33 16 277.81 15.70Q277.30 15.40 276.66 15.40L276.66 15.40Q276.02 15.40 275.51 15.70Q275.00 16 274.69 16.54Q274.39 17.09 274.39 17.80ZM288.44 22L286.06 22L286.06 13.60L288.44 13.60L288.44 22ZM295.94 22L293.61 22L293.61 13.60L295.57 13.60L299.28 18.07L299.28 13.60L301.60 13.60L301.60 22L299.65 22L295.94 17.52L295.94 22ZM308.56 15.48L305.97 15.48L305.97 13.60L313.50 13.60L313.50 15.48L310.93 15.48L310.93 22L308.56 22L308.56 15.48Z" fill="#FFFFFF" x="184.37"/></svg>