<svg xmlns="http://www.w3.org/2000/svg" width="201.20999999999998" height="35" viewBox="0 0 201.20999999999998 35"><rect class="svg__rect" x="0" y="0" width="88.08" height="35" fill="#6CF331"/><rect class="svg__rect" x="86.08" y="0" width="115.13" height="35" fill="#D5B138"/><path class="svg__text" d="M15.70 22L14.22 22L14.22 13.47L17.48 13.47Q18.91 13.47 19.75 14.21Q20.59 14.96 20.59 16.18L20.59 16.18Q20.59 17.44 19.77 18.13Q18.95 18.83 17.46 18.83L17.46 18.83L15.70 18.83L15.70 22ZM15.70 14.66L15.70 17.64L17.48 17.64Q18.27 17.64 18.69 17.27Q19.10 16.90 19.10 16.19L19.10 16.19Q19.10 15.50 18.68 15.09Q18.26 14.68 17.52 14.66L17.52 14.66L15.70 14.66ZM26.91 18.86L24.05 13.47L25.70 13.47L27.66 17.51L29.62 13.47L31.26 13.47L28.40 18.86L28.40 22L26.91 22L26.91 18.86ZM36.86 14.66L34.22 14.66L34.22 13.47L40.99 13.47L40.99 14.66L38.33 14.66L38.33 22L36.86 22L36.86 14.66ZM46.23 22L44.74 22L44.74 13.47L46.23 13.47L46.23 17.02L50.04 17.02L50.04 13.47L51.52 13.47L51.52 22L50.04 22L50.04 18.21L46.23 18.21L46.23 22ZM55.99 18.00L55.99 18.00L55.99 17.52Q55.99 16.28 56.43 15.32Q56.87 14.37 57.68 13.86Q58.48 13.35 59.53 13.35Q60.57 13.35 61.38 13.85Q62.18 14.35 62.62 15.29Q63.06 16.23 63.07 17.48L63.07 17.48L63.07 17.96Q63.07 19.21 62.63 20.16Q62.20 21.10 61.39 21.61Q60.59 22.12 59.54 22.12L59.54 22.12Q58.50 22.12 57.69 21.61Q56.88 21.10 56.44 20.17Q55.99 19.23 55.99 18.00ZM57.47 17.46L57.47 17.96Q57.47 19.36 58.02 20.13Q58.57 20.90 59.54 20.90L59.54 20.90Q60.52 20.90 61.05 20.15Q61.58 19.40 61.58 17.96L61.58 17.96L61.58 17.51Q61.58 16.09 61.05 15.34Q60.51 14.58 59.53 14.58L59.53 14.58Q58.57 14.58 58.02 15.33Q57.48 16.09 57.47 17.46L57.47 17.46ZM69.01 22L67.53 22L67.53 13.47L69.01 13.47L72.83 19.54L72.83 13.47L74.30 13.47L74.30 22L72.82 22L69.01 15.95L69.01 22Z" fill="#FFFFFF"/><path class="svg__text" d="M99.68 21.24L99.68 21.24L100.46 19.49Q101.02 19.86 101.77 20.09Q102.51 20.32 103.23 20.32L103.23 20.32Q104.60 20.32 104.60 19.64L104.60 19.64Q104.60 19.28 104.21 19.11Q103.82 18.93 102.96 18.74L102.96 18.74Q102.01 18.53 101.37 18.30Q100.74 18.06 100.28 17.55Q99.83 17.03 99.83 16.16L99.83 16.16Q99.83 15.39 100.25 14.77Q100.67 14.15 101.50 13.79Q102.34 13.43 103.54 13.43L103.54 13.43Q104.37 13.43 105.18 13.62Q105.98 13.80 106.60 14.17L106.60 14.17L105.86 15.93Q104.66 15.28 103.53 15.28L103.53 15.28Q102.82 15.28 102.50 15.49Q102.18 15.70 102.18 16.04L102.18 16.04Q102.18 16.37 102.56 16.54Q102.95 16.71 103.80 16.89L103.80 16.89Q104.76 17.10 105.39 17.33Q106.02 17.56 106.48 18.07Q106.94 18.58 106.94 19.46L106.94 19.46Q106.94 20.21 106.52 20.83Q106.10 21.44 105.26 21.80Q104.42 22.17 103.22 22.17L103.22 22.17Q102.20 22.17 101.24 21.92Q100.28 21.67 99.68 21.24ZM118.26 22L111.52 22L111.52 13.60L118.11 13.60L118.11 15.44L113.87 15.44L113.87 16.85L117.61 16.85L117.61 18.63L113.87 18.63L113.87 20.17L118.26 20.17L118.26 22ZM129.45 22L123.07 22L123.07 13.60L125.45 13.60L125.45 20.11L129.45 20.11L129.45 22ZM140.62 22L133.87 22L133.87 13.60L140.46 13.60L140.46 15.44L136.23 15.44L136.23 16.85L139.96 16.85L139.96 18.63L136.23 18.63L136.23 20.17L140.62 20.17L140.62 22ZM147.75 22L145.42 22L145.42 13.60L147.38 13.60L151.09 18.07L151.09 13.60L153.41 13.60L153.41 22L151.46 22L147.75 17.52L147.75 22ZM160.95 22L158.57 22L158.57 13.60L160.95 13.60L160.95 22ZM166.06 18.26L166.06 18.26L166.06 13.60L168.44 13.60L168.44 18.19Q168.44 20.20 170.03 20.20L170.03 20.20Q171.61 20.20 171.61 18.19L171.61 18.19L171.61 13.60L173.96 13.60L173.96 18.26Q173.96 20.13 172.92 21.15Q171.88 22.17 170.01 22.17L170.01 22.17Q168.13 22.17 167.09 21.15Q166.06 20.13 166.06 18.26ZM181.24 22L179.04 22L179.04 13.60L181.00 13.60L183.95 18.45L186.83 13.60L188.79 13.60L188.81 22L186.63 22L186.61 17.55L184.44 21.17L183.39 21.17L181.24 17.67L181.24 22Z" fill="#FFFFFF" x="99.08"/></svg>